<?xml version="1.0" encoding="UTF-8" standalone="no"?>
<!-- Created with Inkscape (http://www.inkscape.org/) -->

<svg
   width="151.57207mm"
   height="132.04184mm"
   viewBox="0 0 151.57207 132.04184"
   version="1.1"
   id="svg1"
   inkscape:version="1.4 (e7c3feb1, 2024-10-09)"
   sodipodi:docname="logo-vertical-full-color-white.svg"
   inkscape:export-filename="logo-vertical-full-color-white.png"
   inkscape:export-xdpi="171.59891"
   inkscape:export-ydpi="171.59891"
   xmlns:inkscape="http://www.inkscape.org/namespaces/inkscape"
   xmlns:sodipodi="http://sodipodi.sourceforge.net/DTD/sodipodi-0.dtd"
   xmlns="http://www.w3.org/2000/svg"
   xmlns:svg="http://www.w3.org/2000/svg">
  <sodipodi:namedview
     id="namedview1"
     pagecolor="#ffffff"
     bordercolor="#000000"
     borderopacity="0.25"
     inkscape:showpageshadow="2"
     inkscape:pageopacity="0.0"
     inkscape:pagecheckerboard="0"
     inkscape:deskcolor="#d1d1d1"
     inkscape:document-units="mm"
     inkscape:zoom="0.53417909"
     inkscape:cx="-270.50853"
     inkscape:cy="197.49931"
     inkscape:window-width="1880"
     inkscape:window-height="1062"
     inkscape:window-x="-8"
     inkscape:window-y="210"
     inkscape:window-maximized="0"
     inkscape:current-layer="layer1" />
  <defs
     id="defs1" />
  <g
     inkscape:label="Layer 1"
     inkscape:groupmode="layer"
     id="layer1"
     transform="translate(-25.686248,-50.693544)">
    <path
       d="m 111.10847,123.18755 -9.33087,-9.05988 8.93772,-9.36053 c 0,0 1.7392,-1.22134 2.91235,-0.0482 1.17343,1.17343 -0.52477,4.33825 2.64611,6.15373 0,0 2.49112,1.32209 6.29111,-2.47817 3.79999,-3.8 2.18577,-5.99872 2.18577,-5.99872 -1.81545,-3.170878 -4.9803,-1.4727 -6.15371,-2.646118 -1.17315,-1.17315 -0.005,-2.92806 -0.005,-2.92806 l 9.25256,-8.757799 26.27416,26.138607 -9.07297,9.07295 c 0,0 -1.16819,1.75491 0.005,2.92806 1.17342,1.17341 4.33825,-0.52477 6.15373,2.64584 0,0 1.61421,2.19899 -2.18579,5.99899 -3.79998,3.8 -6.2911,2.47817 -6.2911,2.47817 -3.17088,-1.81547 -1.4727,-4.98029 -2.64613,-6.15371 -1.17315,-1.17315 -2.92803,-0.005 -2.92803,-0.005 l -9.0994,9.09938 -9.11013,-9.18556 c 0,0 -1.67478,-1.14864 -2.84379,0.0206 -1.1693,1.16928 0.53962,4.33989 -2.62493,6.14464 0,0 -2.48671,1.31328 -6.29991,-2.49993 -3.81293,-3.8132 -2.20643,-6.00643 -2.20643,-6.00643 1.80473,-3.16455 4.97534,-1.45563 6.14464,-2.62464 1.16929,-1.16929 -0.005,-2.92834 -0.005,-2.92834 z"
       fill="#127be8"
       id="path1"
       sodipodi:nodetypes="cccscccsccccscscsccccccccc"
       style="stroke-width:0.275322;fill:#127be8;fill-opacity:1" />
    <path
       d="m 66.005785,97.244522 9.528076,-9.52793 9.146182,9.14605 c 0,0 1.23226,1.76776 0.044,2.95605 -1.18857,1.188558 -4.398551,-0.53605 -6.236313,2.676968 0,0 -1.337791,2.52414 2.518092,6.3803 3.855881,3.85588 6.083781,2.2213 6.083781,2.2213 3.21274,-1.83778 1.48839,-5.04775 2.67668,-6.23604 1.18856,-1.18856 2.96852,-0.003 2.96852,-0.003 l 9.049847,9.26856 -26.63795,26.73227 -9.198701,-9.20972 c 0,0 -1.780236,-1.18581 -2.96851,0.003 -1.188564,1.18857 0.536047,4.39854 -2.676901,6.23604 0,0 -2.22774,1.63459 -6.083686,-2.2213 -3.855915,-3.85588 -2.518012,-6.38032 -2.518012,-6.38032 1.837747,-3.21299 5.047748,-1.48838 6.236134,-2.67667 1.188386,-1.18857 0.0016,-2.96852 0.0016,-2.96852 l -9.233165,-9.2332 9.303978,-9.22743 c 0,0 1.162877,-1.6968 -0.02351,-2.88315 -1.186454,-1.18638 -4.399289,0.54321 -6.231753,-2.666498 0,0 -1.333764,-2.52223 2.528496,-6.384444 3.862276,-3.862485 6.087325,-2.231476 6.087325,-2.231476 3.210034,1.832529 1.480173,5.045268 2.666546,6.23162 1.186357,1.18665 2.96851,-0.003 2.96851,-0.003 z"
       fill="#0e5fb5"
       id="path2"
       sodipodi:nodetypes="cccscccsccccscccccccsccccc"
       style="fill:#0b4a8c;fill-opacity:1;stroke-width:0.275322" />
    <path
       d="m 84.836713,97.050142 -9.303689,-9.332616 8.910519,-9.087836 c 0,0 1.73922,-1.221401 2.91236,-0.04815 1.17342,1.173264 -0.52476,4.338091 2.64612,6.153661 0,0 2.49112,1.321927 6.2911,-2.47812 3.799997,-3.800047 2.18579,-5.998927 2.18579,-5.998927 -1.81548,-3.17085 -4.9803,-1.472635 -6.15373,-2.645932 -1.17313,-1.173247 -0.005,-2.928151 -0.005,-2.928151 l 9.107367,-9.03847 26.41933,26.419356 -9.07296,9.072965 c 0,0 -0.86428,1.62294 0.30886,2.79637 0.26988,0.269798 0.65475,0.247298 1.10554,0.274838 0.42483,0.0259 0.8671,0.0356 1.35045,0.0963 0.17764,0.0222 0.36827,0.0887 0.555,0.11225 1.11026,0.13979 2.06004,0.74179 2.91988,2.24355 0,0 1.53317,2.24966 -2.26683,6.04965 -3.8,3.79999 -6.2911,2.47818 -6.2911,2.47818 -1.99869,-1.14452 -2.23928,-2.75203 -2.30744,-4.1319 -0.0213,-0.42987 -0.0783,-0.839 -0.11225,-1.20453 -0.0299,-0.32262 -0.0232,-0.61397 -0.22649,-0.8173 -1.17316,-1.17315 -2.92806,-0.005 -2.92806,-0.005 l -9.09938,9.09939 -9.110127,-9.18584 c 0,0 -1.67478,-1.14836 -2.84379,0.0209 -1.16931,1.16928 0.53962,4.33989 -2.62493,6.14462 0,0 -0.96054,0.82365 -2.60302,0.29223 -0.55419,-0.17931 -1.2347,-0.45255 -1.93349,-0.92775 -0.56242,-0.38251 -1.265556,-1.05042 -1.909135,-1.69404 -3.81322,-3.81321 -2.328104,-6.22545 -2.328104,-6.22545 0.367044,-0.64369 0.887968,-1.28044 1.339723,-1.58609 0.651937,-0.44108 1.630253,-0.62245 2.314386,-0.69147 1.17249,-0.11837 1.95083,0.0705 2.53891,-0.517708 0.35841,-0.35833 0.49664,-0.62607 0.51598,-1.02762 0.0438,-0.90846 -0.30191,-1.68139 -0.30191,-1.68139 z"
       fill="#b6d9ff"
       id="path3"
       sodipodi:nodetypes="cccccscccccccssscscssccccccssccsscsc"
       style="stroke-width:0.275322;fill:#b6d9ff;fill-opacity:1" />
    <text
       xml:space="preserve"
       style="font-weight:bold;font-size:20.04px;font-family:'Fira Code';-inkscape-font-specification:'Fira Code Bold';text-align:start;writing-mode:lr-tb;direction:ltr;text-anchor:start;fill:#7790de;stroke-width:0.28403;paint-order:stroke fill markers"
       x="35.853886"
       y="167.93376"
       id="text4"><tspan
         sodipodi:role="line"
         id="tspan4"
         x="35.853886"
         y="167.93376"
         style="stroke-width:0.28403">Open<tspan
   style="fill:#0b4a8c;fill-opacity:1;stroke-width:0.28403"
   id="tspan5">Everest</tspan></tspan></text>
  </g>
</svg>
