<?xml version="1.0" encoding="UTF-8" standalone="no"?>
<!-- Created with Inkscape (http://www.inkscape.org/) -->

<svg
   width="121.43472mm"
   height="105.78771mm"
   viewBox="0 0 121.43472 105.78771"
   version="1.1"
   id="svg1"
   inkscape:version="1.4 (e7c3feb1, 2024-10-09)"
   sodipodi:docname="logo-vertical-full-color-dark.svg"
   inkscape:export-filename="logo-vertical-full-color-dark.png"
   inkscape:export-xdpi="214.18585"
   inkscape:export-ydpi="214.18585"
   xmlns:inkscape="http://www.inkscape.org/namespaces/inkscape"
   xmlns:sodipodi="http://sodipodi.sourceforge.net/DTD/sodipodi-0.dtd"
   xmlns="http://www.w3.org/2000/svg"
   xmlns:svg="http://www.w3.org/2000/svg">
  <sodipodi:namedview
     id="namedview1"
     pagecolor="#ffffff"
     bordercolor="#000000"
     borderopacity="0.25"
     inkscape:showpageshadow="2"
     inkscape:pageopacity="0.0"
     inkscape:pagecheckerboard="0"
     inkscape:deskcolor="#d1d1d1"
     inkscape:document-units="mm"
     inkscape:zoom="0.37772166"
     inkscape:cx="11.913534"
     inkscape:cy="108.54554"
     inkscape:window-width="1936"
     inkscape:window-height="907"
     inkscape:window-x="210"
     inkscape:window-y="148"
     inkscape:window-maximized="0"
     inkscape:current-layer="layer1" />
  <defs
     id="defs1" />
  <g
     inkscape:label="Layer 1"
     inkscape:groupmode="layer"
     id="layer1"
     transform="translate(-56.533946,-74.63306)">
    <path
       d="m 124.97153,132.71292 -7.4756,-7.25846 7.16061,-7.49937 c 0,0 1.3934,-0.97851 2.33329,-0.0386 0.9401,0.94013 -0.42043,3.47567 2.11998,4.93017 0,0 1.9958,1.05923 5.04023,-1.98544 3.04444,-3.04441 1.75118,-4.80598 1.75118,-4.80598 -1.4545,-2.5404 -3.99006,-1.17988 -4.93015,-2.11998 -0.9399,-0.93989 -0.004,-2.34584 -0.004,-2.34584 l 7.41285,-7.01649 21.05,20.94143 -7.26896,7.26893 c 0,0 -0.93592,1.40599 0.004,2.34588 0.94011,0.9401 3.47567,-0.42042 4.93016,2.11977 0,0 1.29327,1.76177 -1.75117,4.80618 -3.04444,3.04445 -5.04023,1.98544 -5.04023,1.98544 -2.54041,-1.45449 -1.17988,-3.99003 -2.11999,-4.93017 -0.93989,-0.93989 -2.34586,-0.004 -2.34586,-0.004 l -7.29014,7.29015 -7.29874,-7.35918 c 0,0 -1.34178,-0.92025 -2.27836,0.0168 -0.93681,0.9368 0.43233,3.47699 -2.10301,4.92287 0,0 -1.99227,1.05217 -5.04729,-2.00285 -3.05479,-3.05503 -1.76772,-4.81216 -1.76772,-4.81216 1.44589,-2.53534 3.98608,-1.16619 4.92289,-2.10276 0.9368,-0.9368 -0.004,-2.34609 -0.004,-2.34609 z"
       fill="#127be8"
       id="path1-0"
       sodipodi:nodetypes="cccscccsccccscscsccccccccc"
       style="stroke-width:0.220579;fill:#b6d9ff;fill-opacity:1" />
    <path
       d="m 88.836696,111.9282 7.633591,-7.63347 7.327633,7.32752 c 0,0 0.98724,1.41629 0.0352,2.36831 -0.95224,0.95224 -3.52398,-0.42947 -4.996345,2.14468 0,0 -1.071795,2.02228 2.017425,5.11172 3.0892,3.0892 4.87414,1.77962 4.87414,1.77962 2.57393,-1.47238 1.19244,-4.0441 2.14446,-4.99611 0.95224,-0.95225 2.37829,-0.004 2.37829,-0.004 l 7.25045,7.42566 -21.341491,21.41704 -7.369693,-7.37853 c 0,0 -1.426269,-0.95004 -2.378289,0.004 -0.952239,0.95225 0.429477,3.52399 -2.144634,4.99612 0,0 -1.784807,1.30958 -4.874056,-1.77961 -3.089235,-3.08924 -2.01735,-5.11173 -2.01735,-5.11173 1.472344,-2.57415 4.044094,-1.19244 4.996191,-2.14445 0.952097,-0.95225 0.0026,-2.3783 0.0026,-2.3783 l -7.397318,-7.39735 7.454051,-7.39272 c 0,0 0.931659,-1.35942 -0.01884,-2.30989 -0.950549,-0.95047 -3.52457,0.43519 -4.992682,-2.1363 0,0 -1.068569,-2.02074 2.02575,-5.11503 3.094332,-3.09448 4.876971,-1.78778 4.876971,-1.78778 2.571776,1.46819 1.18588,4.0421 2.136352,4.99258 0.950471,0.95071 2.378275,-0.004 2.378275,-0.004 z"
       fill="#0e5fb5"
       id="path2-8"
       sodipodi:nodetypes="cccscccsccccscccccccsccccc"
       style="fill:#1486ff;fill-opacity:1;stroke-width:0.220579" />
    <path
       d="m 103.92343,111.77249 -7.453814,-7.47701 7.138824,-7.280891 c 0,0 1.39341,-0.978536 2.33329,-0.03854 0.94011,0.939961 -0.42042,3.475541 2.11999,4.930131 0,0 1.99579,1.05907 5.04022,-1.985406 3.04444,-3.044476 1.75119,-4.806143 1.75119,-4.806143 -1.4545,-2.540394 -3.99006,-1.179851 -4.93017,-2.119846 -0.93988,-0.939961 -0.004,-2.345941 -0.004,-2.345941 l 7.29653,-7.241326 21.16632,21.166322 -7.26896,7.26901 c 0,0 -0.69244,1.30022 0.24745,2.24035 0.21622,0.21617 0.52457,0.19814 0.88572,0.22019 0.34036,0.0208 0.69469,0.0287 1.08194,0.0772 0.14232,0.0178 0.29504,0.0711 0.44465,0.0898 0.88951,0.112 1.65044,0.59431 2.3393,1.79748 0,0 1.22833,1.80237 -1.8161,4.84681 -3.04444,3.04441 -5.04024,1.9854 -5.04024,1.9854 -1.60128,-0.91695 -1.79403,-2.20481 -1.84863,-3.31034 -0.017,-0.34439 -0.0627,-0.67214 -0.0899,-0.96502 -0.024,-0.25845 -0.0186,-0.4919 -0.18145,-0.65481 -0.93989,-0.93985 -2.34586,-0.004 -2.34586,-0.004 l -7.29014,7.29015 -7.29873,-7.35941 c 0,0 -1.34179,-0.92002 -2.27837,0.0168 -0.9368,0.93682 0.43234,3.47701 -2.103,4.92289 0,0 -0.76955,0.6599 -2.08545,0.23413 -0.44402,-0.14365 -0.98922,-0.36259 -1.54905,-0.74329 -0.4506,-0.30642 -1.01394,-0.84155 -1.52954,-1.3572 -3.055035,-3.05503 -1.86522,-4.98762 -1.86522,-4.98762 0.294063,-0.51572 0.711424,-1.02585 1.073356,-1.27073 0.522314,-0.35339 1.306104,-0.49869 1.854214,-0.55399 0.93936,-0.0948 1.56293,0.0565 2.03409,-0.41478 0.28715,-0.28707 0.39789,-0.50159 0.41339,-0.82332 0.0351,-0.72782 -0.24188,-1.34706 -0.24188,-1.34706 z"
       fill="#b6d9ff"
       id="path3-2"
       sodipodi:nodetypes="cccccscccccccssscscssccccccssccsscsc"
       style="fill:#ffffff;fill-opacity:1;stroke-width:0.220579" />
    <text
       xml:space="preserve"
       style="font-weight:bold;font-size:16.0554px;font-family:'Fira Code';-inkscape-font-specification:'Fira Code Bold';text-align:start;writing-mode:lr-tb;direction:ltr;text-anchor:start;fill:#7790de;stroke-width:0.227556;paint-order:stroke fill markers"
       x="64.679955"
       y="168.56219"
       id="text4-0"><tspan
         sodipodi:role="line"
         id="tspan4-6"
         x="64.679955"
         y="168.56219"
         style="stroke-width:0.227556"><tspan
           style="fill:#ffffff;fill-opacity:1;stroke-width:0.227556"
           id="tspan6-0">Open</tspan><tspan
           style="fill:#62aeff;fill-opacity:1;stroke-width:0.227556"
           id="tspan5-7">Everest</tspan></tspan></text>
  </g>
</svg>
