<?xml version="1.0" encoding="UTF-8" standalone="no"?>
<!-- Created with Inkscape (http://www.inkscape.org/) -->

<svg
   width="320mm"
   height="132mm"
   viewBox="0 0 320 132"
   version="1.1"
   id="svg1"
   inkscape:version="1.4 (e7c3feb1, 2024-10-09)"
   sodipodi:docname="320x132-colored-logo.svg"
   inkscape:export-filename="320x132-colored-logo.png"
   inkscape:export-xdpi="96"
   inkscape:export-ydpi="96"
   xmlns:inkscape="http://www.inkscape.org/namespaces/inkscape"
   xmlns:sodipodi="http://sodipodi.sourceforge.net/DTD/sodipodi-0.dtd"
   xmlns="http://www.w3.org/2000/svg"
   xmlns:svg="http://www.w3.org/2000/svg">
  <sodipodi:namedview
     id="namedview1"
     pagecolor="#ffffff"
     bordercolor="#000000"
     borderopacity="0.25"
     inkscape:showpageshadow="2"
     inkscape:pageopacity="0.0"
     inkscape:pagecheckerboard="0"
     inkscape:deskcolor="#d1d1d1"
     inkscape:document-units="mm"
     inkscape:zoom="0.37876793"
     inkscape:cx="351.1385"
     inkscape:cy="551.78907"
     inkscape:window-width="1680"
     inkscape:window-height="703"
     inkscape:window-x="0"
     inkscape:window-y="765"
     inkscape:window-maximized="0"
     inkscape:current-layer="layer1" />
  <defs
     id="defs1">
    <clipPath
       clipPathUnits="userSpaceOnUse"
       id="clipPath3">
      <rect
         style="fill:none;stroke:#000000;stroke-width:2.046;stroke-opacity:1"
         id="rect4"
         width="32.68605"
         height="64.270325"
         x="31.951534"
         y="69.411942" />
    </clipPath>
    <clipPath
       clipPathUnits="userSpaceOnUse"
       id="clipPath3-4">
      <rect
         style="fill:none;stroke:#000000;stroke-width:2.046;stroke-opacity:1"
         id="rect4-9"
         width="32.68605"
         height="64.270325"
         x="31.951534"
         y="69.411942" />
    </clipPath>
    <inkscape:path-effect
       effect="spiro"
       id="path-effect17"
       is_visible="true"
       lpeversion="1" />
  </defs>
  <g
     inkscape:label="Layer 1"
     inkscape:groupmode="layer"
     id="layer1"
     transform="translate(31.695656,11.438089)">
    <rect
       style="fill:none;stroke:#7790de;stroke-width:5;stroke-dasharray:none;stroke-opacity:1"
       id="rect2"
       width="50.314484"
       height="48.845448"
       x="39.663971"
       y="77.491653"
       clip-path="url(#clipPath3)"
       transform="matrix(1.467556,0,0,1.467556,-76.748752,-88.230516)" />
    <rect
       style="fill:none;stroke:#7790de;stroke-width:5;stroke-dasharray:none;stroke-opacity:1"
       id="rect2-7"
       width="50.314484"
       height="48.845448"
       x="39.663971"
       y="77.491653"
       clip-path="url(#clipPath3-4)"
       transform="matrix(-1.467556,0,0,1.467556,111.2652,-97.805837)" />
    <path
       style="fill:none;fill-opacity:1;stroke:none;stroke-width:6.4749;stroke-dasharray:none;stroke-opacity:1"
       id="path7"
       d="m 20.407158,21.901404 c 0.110389,-0.07944 0.195174,-0.241553 0.331186,-0.238601 0.118279,0.0027 0.18299,0.154326 0.250436,0.251485 0.07773,0.112188 0.116376,0.246653 0.179288,0.367778 0.03497,0.06737 0.09286,0.123997 0.114146,0.196732 0.035,0.119704 0.02861,0.247727 0.05172,0.370356 0.03127,0.165598 0.07413,0.328995 0.111168,0.493493 0.01073,0.16882 0.02147,0.337853 0.03237,0.50678 0.02912,0.180628 0.07129,0.359512 0.08741,0.541724 0.01557,0.174993 -0.0045,0.351515 0.0072,0.526722 0.01207,0.180359 0.05547,0.357983 0.06417,0.538584 0.0086,0.17365 -0.03701,0.349045 -0.01289,0.521165 0.03915,0.281518 0.133928,0.552461 0.200892,0.828716 0.434636,1.549111 0.837564,2.832244 2.035807,3.987595 0.631241,0.608635 1.494063,1.114743 2.222405,1.585262 1.063849,0.521569 1.927049,1.273848 2.718365,2.138555 0.215009,0.234845 0.79151,0.887711 0.963598,1.204844 0.08285,0.152715 0.111114,0.329184 0.166645,0.493762 0.200758,0.03892 -0.109263,1.358819 -0.39935,1.066835 -0.05656,-0.0569 -0.07002,-0.144395 -0.105022,-0.216593 -0.133848,-0.557988 -0.05486,-1.909616 0.368109,-2.263438 0.0974,-0.0816 0.243969,-0.07059 0.365962,-0.105747 0.835815,0.642721 -0.04963,-0.149227 0.564905,0.847048 0.201912,0.327359 0.662501,0.524949 0.714467,0.906041 0.04858,0.356184 -0.250249,0.682926 -0.457784,0.97644 -0.336699,0.476156 -1.581274,1.580083 -1.980829,1.94864 -0.738219,0.66481 -1.231069,1.561859 -1.952384,2.241027 -0.43095,0.405757 -0.922525,0.742429 -1.398585,1.094185 -1.545728,1.142173 -3.189568,2.081494 -4.861328,3.022104 -0.569157,0.300144 -1.137613,0.601602 -1.707468,0.900405 -1.22674,0.643257 -2.090209,1.116058 -3.364114,1.663553 -1.666763,0.716314 -3.381383,1.266787 -5.120516,1.771903 -1.2475946,0.42959 -2.5130966,0.803676 -3.7827026,1.161739 -0.294814,0.0832 -0.58577,0.182506 -0.88556,0.245579 -2.9581595,0.620632 1.040359,-0.354708 -1.5441851,0.293059 -0.8000417,0.05207 -0.4047499,0.03408 -1.185827,0.05448 0,0 61.9658537,6.962971 61.9658537,6.962971 v 0 c -0.07746,-0.337825 -0.06839,-0.158351 -0.0037,-0.53912 0.05569,-0.211762 0.0689,-0.434099 0.13213,-0.643848 0.04104,-0.135806 0.121339,-0.25712 0.170107,-0.390539 0.175448,-0.479779 0.235219,-0.992355 0.427625,-1.467089 0.0773,-0.224913 0.125876,-0.462119 0.231891,-0.674955 0.911624,-1.825394 2.95726,-3.118699 4.416218,-4.46171 1.371461,-1.123225 2.726819,-2.260781 4.161701,-3.303648 0.53649,-0.389895 1.064903,-0.793343 1.627883,-1.143891 0.631905,-0.393411 1.303424,-0.7194 1.951861,-1.084898 0.605092,-0.3411 1.205782,-0.689904 1.808673,-1.034869 1.548359,-1.042411 3.172271,-2.299484 4.921387,-2.980933 0.888488,-0.34612 1.837687,-0.515663 2.734897,-0.838486 0.8945,-0.32183 2.049985,-0.97365 2.892847,-1.422617 0.331894,-0.296252 0.711697,-0.546287 0.99563,-0.888757 0.710731,-0.857193 0.94061,-2.074624 0.901263,-3.15936 -0.0161,-0.440406 -0.207199,-0.918199 -0.341288,-1.326398 -0.118361,-0.199416 -0.208005,-0.418881 -0.35487,-0.598221 -0.427146,-0.521353 -0.57852,-0.456993 -1.170193,-0.751259 -0.86511,-0.430287 -1.700644,-0.927511 -2.630357,-1.218423 -1.046717,-0.43882 -2.069026,-0.912774 -3.06267,-1.463999 -0.477229,-0.264636 -1.310509,-0.738162 -1.704134,-1.152131 -0.168014,-0.176603 -0.259536,-0.412681 -0.389196,-0.618994 -0.07757,-0.17043 -0.155131,-0.340994 -0.232697,-0.511504 -0.03758,-0.116214 -0.06388,-0.236722 -0.112456,-0.348642 -0.0054,-0.0161 -0.217667,-0.30688 -0.220351,-0.309538 -0.02684,-0.02415 -0.08562,-0.008 -0.101452,-0.04187 -0.01073,-0.02415 0.03221,-0.04616 0.04804,-0.06925 0.231623,-0.414587 0.04885,-0.008 0.130976,-0.663843 0.01878,-0.146275 0.07219,-0.286108 0.09958,-0.431013 0.02415,-0.133123 0.02147,-0.271667 0.05743,-0.40224 0.06764,-0.245848 0.233502,-0.457986 0.274781,-0.71406 0.07193,-0.105746 0.152983,-0.206125 0.215788,-0.317535 0.07676,-0.135807 0.330176,-0.749648 0.387988,-0.837574 0.190827,-0.290053 0.336968,-0.203173 0.562713,-0.476451 0.1503,-0.181971 0.252558,-0.398403 0.378917,-0.597604 z" />
    <path
       style="fill:none;fill-opacity:1;stroke:none;stroke-width:6.4749;stroke-dasharray:none;stroke-opacity:1"
       id="path8"
       d="m -6.2401932,14.263667 c 0.068682,0.03355 0.1772468,0.02979 0.2060721,0.100648 0.073137,0.179823 0.046325,0.385492 0.069997,0.578199 0.017982,0.147079 0.049412,0.293084 0.055208,0.441184 0.00752,0.195927 -0.024423,0.392175 -0.014762,0.587995 0.068226,1.380694 0.1084844,-0.358357 0.04509,1.125264 -0.054967,0.589794 -0.1408258,1.175964 -0.2071188,1.764496 -0.02013,0.179824 -0.071983,0.359485 -0.056658,0.539765 0.1214478,1.427072 0.2376083,-0.210689 0.095789,1.092896 -0.050431,1.038331 -0.2174787,1.70137 0.3226245,2.703495 0.486387,0.902444 1.247501,1.627482 2.0890819,2.191509 0.4558949,0.305539 0.964054,0.524762 1.4460839,0.787143 2.42858322,1.227388 5.1358358,1.524928 7.7627019,2.057741 2.102247,0.426396 1.834028,0.39376 3.714006,1.005508 1.0569227,0.365577 2.0419167,0.892406 2.9095027,1.599514 0.334052,0.272258 0.636531,0.538128 0.796216,0.94842 0.04796,0.123193 0.03679,0.261684 0.05518,0.392633 -3.41e-4,0.08132 0.02842,0.16855 -0.0014,0.244236 -0.06208,0.158353 -0.195229,0.198343 -0.297948,0.06119 -0.02121,-0.02845 -0.0067,-0.07273 0.0051,-0.106015 0.217023,-0.603267 0.184145,-0.462709 0.641191,-0.972682 0.332472,-0.02415 0.68269,-0.182776 0.997415,-0.07273 0.291408,0.10172 0.488996,0.393062 0.658513,0.651014 0.515867,0.784941 0.536569,1.348702 0.543624,2.26843 0.01073,1.407077 -0.100565,1.60397 -0.366195,3.026641 -0.309519,0.545293 -0.565413,1.124753 -0.928559,1.635908 -0.400896,0.564296 -0.888195,1.062406 -1.352896,1.575439 -1.06873,1.179883 -1.846449,1.977573 -3.1135887,2.952108 -1.399691,1.076497 -2.271769,1.52874 -3.782209,2.418757 -1.593052,0.907222 -3.2363253,1.744098 -4.9232259,2.464867 -0.43930278,0.187607 -0.89598408,0.332646 -1.33629878,0.517971 -2.98138292,1.254791 0.5161277,-0.114603 -2.01842782,0.861649 -0.3450583,0.199685 -0.9091075,0.560566 -1.3187986,0.684054 -0.1945848,0.05877 -0.402957,0.05582 -0.6019086,0.09742 -0.1694096,0.03543 -0.3297503,0.114872 -0.5018572,0.133123 -0.8879887,0.09421 -0.046378,-0.246116 -0.8983701,0.195121 -0.5268662,0.21874 -0.2658433,0.227329 -0.693039,0.05207 -0.087899,-0.03597 -0.2245375,-0.0161 -0.2659505,-0.102256 -0.1226556,-0.253094 -0.1218504,-0.549347 -0.1827756,-0.824047 0,0 63.4272198,8.201256 63.4272198,8.201256 v 0 c 6.85e-4,-0.292763 0.0017,-0.585526 0.0025,-0.878316 -0.0078,-0.08347 -0.02308,-0.166403 -0.02308,-0.250142 -1.34e-4,-0.108431 0.03551,-0.216861 0.02255,-0.324541 -0.0048,-0.03972 -0.04893,-0.06361 -0.07338,-0.09528 0.01208,-0.299313 0.110712,-0.569181 0.159774,-0.860334 0.02603,-0.154325 0.0196,-0.31351 0.05127,-0.466762 0.348259,-1.679039 -0.03207,0.641057 0.193109,-0.803219 0.004,-0.180629 0.01987,-0.36115 0.01235,-0.541564 -0.02944,-0.70437 -0.202824,-1.406781 -0.173489,-2.115258 0.01423,-0.341154 0.07225,-0.679222 0.121206,-1.017128 0.05515,-0.380501 0.127353,-0.758344 0.191069,-1.137503 0.259348,-1.141153 0.30195,-1.636231 0.863276,-2.721183 0.497739,-0.962054 1.541114,-2.363333 2.174814,-3.210999 0.42649,-0.57047 0.834139,-1.157149 1.300877,-1.695196 0.51956,-0.598947 1.102161,-1.140161 1.653254,-1.710254 0.267535,-0.214177 3.704639,-2.965098 4.042974,-3.245381 0.583889,-0.483617 1.145206,-0.994047 1.728666,-1.478173 1.108383,-0.91973 2.227634,-1.709154 3.228445,-2.752182 0.511852,-0.533458 0.953224,-1.130337 1.429863,-1.695492 0.269976,-1.106638 0.610218,-1.764496 0.265709,-2.887666 -0.09018,-0.293891 -0.311228,-0.535578 -0.518267,-0.762827 -0.911409,-1.000381 -2.014665,-1.259461 -3.234081,-1.727243 -3.527756,-0.875282 -7.049211,-1.789912 -10.524779,-2.854814 -1.149777,-0.3896 -1.750381,-0.503023 -2.740227,-1.135464 -0.644876,-0.412036 -0.603061,-0.552298 -1.098246,-0.997348 -0.123299,-0.110845 -0.262649,-0.202368 -0.394424,-0.302908 -0.116187,-0.08857 -0.232965,-0.176602 -0.349453,-0.264903 -0.02067,-0.03381 -0.06989,-0.06254 -0.06173,-0.101453 0.0072,-0.03462 0.04861,0.05288 0.06533,0.08428 0.05905,0.110308 0.13256,0.217398 0.161116,0.339248 0.03237,0.138222 0.05341,0.581796 -0.183688,0.41107 -0.06511,-0.04697 -0.04012,-0.155399 -0.06021,-0.232965 -0.04737,-0.783546 -0.07389,-0.01342 0.179877,-0.737946 0.03272,-0.0934 0.01021,-0.197537 0.02174,-0.295823 0.03135,-0.269063 0.09281,-0.518105 0.260233,-0.737222 0.204516,-0.186801 0.284146,-0.290293 0.566798,-0.39392 0.08098,-0.02953 0.172576,-0.01073 0.257147,-0.02845 0.118012,-0.02415 0.229127,-0.10172 0.349037,-0.09179 0.122388,0.01073 0.214768,0.158084 0.337196,0.148422 0.165544,-0.01342 0.300994,-0.14037 0.45149,-0.210689 z" />
    <path
       style="fill:none;fill-opacity:1;stroke:none;stroke-width:6.4749;stroke-dasharray:none;stroke-opacity:1"
       d="m 29.041435,16.01893 c -1.072962,1.08785 -3.51198,5.108617 -1.596414,6.385658 0.175019,0.116751 0.406438,0.114066 0.598656,0.199684 1.957094,0.869834 3.912656,1.449778 5.98655,1.995528 1.56203,0.411071 3.262453,0.851584 4.789238,1.396851 0.477065,0.170429 0.91628,0.438474 1.396864,0.59865 0.851525,0.283853 1.76291,0.441963 2.59417,0.798228 0.796948,0.34153 0.337918,0.378702 0.99776,0.598651 0.0631,0.02147 0.152501,-0.04697 0.19955,0 0.04705,0.04697 -0.04705,0.152446 0,0.199416 0.04705,0.04697 0.152501,-0.04697 0.199549,0 0.579877,0.57989 -1.396722,2.575873 -1.596417,2.793728 -1.659602,1.810472 -3.292545,3.606825 -4.988794,5.387881 -2.63219,2.763803 -5.223648,5.533537 -7.982064,8.181637 -1.104904,1.060688 -2.246046,2.173848 -3.392379,3.192829 -0.566841,0.503853 -1.225203,0.897424 -1.795962,1.39685 -0.353973,0.309726 -0.621482,0.715536 -0.997759,0.997751 -0.282244,0.211762 -0.997761,0.502834 -0.997761,0.798201"
       id="path9" />
    <path
       style="fill:none;fill-opacity:1;stroke:#414625;stroke-width:4;stroke-dasharray:none;stroke-opacity:1;paint-order:stroke fill markers"
       d="m 72.646076,78.211703 c -1.324398,-0.6379 -2.84354,-0.864188 -4.296356,-0.639976 -1.452817,0.224212 -2.833057,0.897959 -3.903522,1.905456 -1.070466,1.007497 -1.826551,2.344409 -2.138321,3.780983 -0.311769,1.436575 -0.177881,2.966631 0.378655,4.327224 0.83109,2.031809 2.51945,3.577634 4.237155,4.944545 1.717706,1.366912 3.54711,2.657686 4.843607,4.429142 1.544905,2.110867 2.216814,4.841143 1.827973,7.427893 -0.388842,2.58675 -1.833748,4.99883 -3.930968,6.56221 -2.097219,1.56338 -4.821487,2.25924 -7.411555,1.89313 -2.590069,-0.36611 -5.014737,-1.78978 -6.596476,-3.87319"
       id="path17"
       inkscape:path-effect="#path-effect17"
       inkscape:original-d="m 72.646076,78.211703 c -3.319849,2.929276 -6.639695,6.151483 -9.959544,9.373687 -3.319846,3.222204 6.053842,6.249125 9.080762,9.373687 3.026918,3.124563 -10.740683,8.006693 -16.111026,12.010043"
       transform="matrix(1.4089766,0,0,1.1243202,-75.645262,-50.583229)" />
    <text
       xml:space="preserve"
       style="font-style:normal;font-variant:normal;font-weight:100;font-stretch:normal;font-size:53.8193px;font-family:'Adelle Sans';-inkscape-font-specification:'Adelle Sans Thin';text-align:start;writing-mode:lr-tb;direction:ltr;text-anchor:start;fill:#000000;fill-opacity:1;stroke:#414625;stroke-width:1.08013;stroke-dasharray:none;stroke-opacity:1;paint-order:stroke fill markers"
       x="70.561958"
       y="73.075829"
       id="text18"
       transform="scale(1.0490028,0.9532863)"><tspan
         sodipodi:role="line"
         id="tspan18"
         style="stroke:#414625;stroke-width:1.08013;stroke-dasharray:none;stroke-opacity:1"
         x="70.561958"
         y="73.075829">solanica</tspan></text>
  </g>
</svg>
